<svg width="40" height="40" viewBox="0 0 40 40" fill="none" xmlns="http://www.w3.org/2000/svg">
<g filter="url(#filter0_d_3300_32500)">
<path fill-rule="evenodd" clip-rule="evenodd" d="M17.2054 8.0345C16.7799 8.09688 16.173 8.30063 16.0158 8.43392C15.5873 8.7971 15.5753 9.53669 15.9916 9.92992C16.2929 10.2145 16.6068 10.2617 17.1788 10.1085C17.5156 10.0183 17.696 10.0151 22.4811 10.0151C26.7998 10.0151 27.4707 10.0245 27.7144 10.0882C28.8052 10.3734 29.6344 11.2086 29.9154 12.3049C29.9783 12.5505 29.9876 13.2883 29.9876 18.0706C29.9876 23.4659 29.986 23.5604 29.8907 23.9081C29.673 24.7028 29.0771 25.429 28.3458 25.7907C27.642 26.1388 27.8617 26.1262 22.4682 26.1272C18.1896 26.1279 17.6081 26.1193 17.3085 26.0514C16.5769 25.8853 16.0331 25.5269 15.5123 24.8675C15.3311 24.6382 14.0798 23.0209 12.7315 21.2737C11.1169 19.1813 10.2925 18.0764 10.3166 18.0369C10.3367 18.004 10.7629 17.4472 11.2639 16.7995C11.7648 16.1518 12.2138 15.5352 12.2616 15.4292C12.38 15.1666 12.3716 14.9058 12.2352 14.6108C11.9812 14.0614 11.2871 13.8766 10.7833 14.2243C10.652 14.3149 8.362 17.2296 8.1216 17.6121C7.97239 17.8496 7.95888 18.2184 8.09003 18.4732C8.2626 18.8083 14.225 26.499 14.5298 26.7796C15.3547 27.539 16.3241 27.9868 17.4165 28.113C17.9779 28.1779 26.9516 28.1746 27.5327 28.1093C29.609 27.8761 31.2893 26.4155 31.8518 24.355L31.9805 23.8835L31.9948 18.2842C32.0075 13.3121 32.0006 12.6331 31.9334 12.2235C31.6084 10.2403 30.1918 8.67784 28.2285 8.13728L27.7595 8.00809L22.6232 8.00067C19.7982 7.99656 17.3602 8.01177 17.2054 8.0345ZM19.1755 14.6083C18.6692 14.7866 18.386 15.3726 18.5637 15.8743C18.6242 16.0452 18.8295 16.2793 19.6099 17.0669L20.5808 18.0468L19.6374 19.0042C19.1184 19.5308 18.6604 20.0285 18.6194 20.1102C18.4244 20.4994 18.4854 20.9135 18.7863 21.2423C19.0969 21.5818 19.5627 21.6677 19.9729 21.4611C20.0503 21.4221 20.5413 20.9633 21.064 20.4416L22.0145 19.4931L23.0107 20.4894C24.0961 21.575 24.1623 21.6199 24.6192 21.5817C25.2952 21.5253 25.7154 20.7564 25.4014 20.1506C25.3475 20.0467 24.88 19.5368 24.3625 19.0175L23.4216 18.0735L24.3564 17.1275C25.0101 16.466 25.32 16.1175 25.3868 15.9688C25.776 15.1034 24.8934 14.2438 24.0513 14.6682C23.8905 14.7492 23.5388 15.0682 22.906 15.7068L21.9927 16.6285L21.0063 15.6423C20.2038 14.84 19.9848 14.6464 19.8322 14.6039C19.6038 14.5405 19.3636 14.5421 19.1755 14.6083Z" fill="#272E35"/>
</g>
<defs>
<filter id="filter0_d_3300_32500" x="0" y="0" width="40" height="40" filterUnits="userSpaceOnUse" color-interpolation-filters="sRGB">
<feFlood flood-opacity="0" result="BackgroundImageFix"/>
<feColorMatrix in="SourceAlpha" type="matrix" values="0 0 0 0 0 0 0 0 0 0 0 0 0 0 0 0 0 0 127 0" result="hardAlpha"/>
<feOffset dy="2"/>
<feGaussianBlur stdDeviation="4"/>
<feComposite in2="hardAlpha" operator="out"/>
<feColorMatrix type="matrix" values="0 0 0 0 0 0 0 0 0 0 0 0 0 0 0 0 0 0 0.05 0"/>
<feBlend mode="normal" in2="BackgroundImageFix" result="effect1_dropShadow_3300_32500"/>
<feBlend mode="normal" in="SourceGraphic" in2="effect1_dropShadow_3300_32500" result="shape"/>
</filter>
</defs>
</svg>
