<svg width="40" height="40" viewBox="0 0 40 40" fill="none" xmlns="http://www.w3.org/2000/svg">
<g filter="url(#filter0_d_3300_32003)">
<rect x="20" y="18" width="8" height="9" rx="2" fill="#C4F2ED"/>
<path fill-rule="evenodd" clip-rule="evenodd" d="M13.5285 6.04122C13.3174 6.10577 13.0187 6.41598 12.9583 6.63331C12.9309 6.73178 12.9084 7.04777 12.9083 7.33546L12.908 7.85854L12.0039 7.87976C11.1942 7.89877 11.0557 7.91421 10.6771 8.02752C9.47288 8.38796 8.50921 9.34936 8.13113 10.5675L8 10.9899V18.946V26.9021L8.13113 27.3245C8.50841 28.5402 9.46071 29.4919 10.6771 29.8689L11.0998 30H20H28.9002L29.3229 29.8689C30.8774 29.387 31.9772 27.9713 31.9946 26.4295C31.9996 25.9908 31.9909 25.9432 31.874 25.7664C31.6795 25.4722 31.4508 25.3531 31.0807 25.3531C30.8244 25.3531 30.7396 25.3745 30.5816 25.479C30.3062 25.6612 30.1985 25.8658 30.1423 26.3134C30.03 27.2081 29.6065 27.7779 28.8602 28.0381C28.6309 28.1181 28.1728 28.1225 20 28.1225C11.8272 28.1225 11.3691 28.1181 11.1398 28.0381C10.6119 27.854 10.1985 27.459 9.98777 26.9374L9.87867 26.6674V18.9695C9.87867 11.6824 9.88318 11.2586 9.96307 11.0298C10.1479 10.5004 10.5469 10.0845 11.0645 9.88169C11.2962 9.79091 11.4459 9.77307 12.1166 9.75631L12.8986 9.73674L12.9151 10.3633C12.9298 10.9249 12.9431 11.0085 13.043 11.1691C13.1043 11.2676 13.2401 11.4049 13.3448 11.4742C13.5034 11.5791 13.5874 11.6001 13.8474 11.6001C14.1074 11.6001 14.1913 11.5791 14.3499 11.4742C14.4546 11.4049 14.5905 11.2676 14.6518 11.1691C14.7515 11.0087 14.7649 10.9248 14.7796 10.368L14.7959 9.74603H16.9002H19.0045L19.0208 10.3715C19.0361 10.9576 19.0451 11.0089 19.1632 11.1871C19.3579 11.4811 19.5866 11.6001 19.9565 11.6001C20.2128 11.6001 20.2975 11.5787 20.4556 11.4742C20.5603 11.4049 20.6961 11.2676 20.7574 11.1691C20.8572 11.0087 20.8706 10.9248 20.8852 10.368L20.9016 9.74603H23.0294H25.1571L25.1735 10.3715C25.1888 10.9576 25.1978 11.0089 25.3158 11.1871C25.5106 11.4811 25.7392 11.6001 26.1091 11.6001C26.3654 11.6001 26.4502 11.5787 26.6082 11.4742C26.7129 11.4049 26.8488 11.2676 26.9101 11.1691C27.01 11.0085 27.0232 10.9249 27.038 10.3634L27.0544 9.73693L27.8599 9.75603C28.5442 9.77223 28.7034 9.7902 28.9179 9.87568C29.4387 10.0831 29.8067 10.4459 30.0122 10.9546L30.1213 11.2246L30.1448 16.5556L30.1683 21.8865L30.2943 22.0768C30.4883 22.3698 30.7179 22.4898 31.0841 22.4898C31.4504 22.4898 31.68 22.3698 31.874 22.0768L32 21.8865V16.4382V10.9899L31.8689 10.5675C31.4908 9.34945 30.5274 8.38824 29.3229 8.02743C28.9421 7.91332 28.8086 7.89868 27.9771 7.87981L27.054 7.85887L27.0378 7.2382C27.0226 6.65725 27.0135 6.60543 26.8955 6.42739C26.7014 6.13444 26.4719 6.01442 26.1057 6.01442C25.7395 6.01442 25.5099 6.13444 25.3158 6.42739C25.1978 6.60561 25.1888 6.65692 25.1735 7.24304L25.1571 7.86849H23.0294H20.9016L20.8852 7.24656C20.8706 6.68977 20.8572 6.60585 20.7574 6.44546C20.6961 6.34689 20.5603 6.20959 20.4556 6.14036C20.2975 6.03583 20.2128 6.01442 19.9565 6.01442C19.5866 6.01442 19.3579 6.13346 19.1632 6.42739C19.0451 6.60561 19.0361 6.65692 19.0208 7.24304L19.0045 7.86849H16.9002H14.7959L14.7796 7.24656C14.7649 6.68977 14.7515 6.60585 14.6518 6.44546C14.4303 6.08938 13.9436 5.91426 13.5285 6.04122ZM13.5285 14.9595C13.3047 15.028 13.0173 15.3353 12.9526 15.5752C12.8402 15.9925 13.0073 16.4311 13.3628 16.652C13.6292 16.8175 14.0879 16.8107 14.3499 16.6374C14.6431 16.4435 14.7632 16.2141 14.7632 15.848C14.7632 15.4867 14.6433 15.2527 14.3633 15.0675C14.1618 14.9343 13.7747 14.8842 13.5285 14.9595ZM17.6146 14.9595C17.3908 15.028 17.1034 15.3353 17.0387 15.5752C16.9263 15.9925 17.0934 16.4311 17.4489 16.652C17.7153 16.8175 18.174 16.8107 18.436 16.6374C18.7292 16.4435 18.8493 16.2141 18.8493 15.848C18.8493 15.4867 18.7294 15.2527 18.4494 15.0675C18.248 14.9343 17.8609 14.8842 17.6146 14.9595ZM21.7007 14.9595C21.4769 15.028 21.1895 15.3353 21.1249 15.5752C21.0124 15.9925 21.1795 16.4311 21.535 16.652C21.8014 16.8175 22.2601 16.8107 22.5221 16.6374C22.8153 16.4435 22.9354 16.2141 22.9354 15.848C22.9354 15.4867 22.8155 15.2527 22.5355 15.0675C22.3341 14.9343 21.947 14.8842 21.7007 14.9595ZM25.7868 14.9595C25.563 15.028 25.2756 15.3353 25.211 15.5752C25.0985 15.9925 25.2656 16.4311 25.6211 16.652C25.8875 16.8175 26.3462 16.8107 26.6082 16.6374C26.9014 16.4435 27.0215 16.2141 27.0215 15.848C27.0215 15.4867 26.9016 15.2527 26.6216 15.0675C26.4202 14.9343 26.0331 14.8842 25.7868 14.9595ZM13.5285 19.0432C13.3047 19.1116 13.0173 19.4189 12.9526 19.6588C12.8402 20.0761 13.0073 20.5147 13.3628 20.7356C13.6292 20.9011 14.0879 20.8944 14.3499 20.7211C14.6431 20.5272 14.7632 20.2977 14.7632 19.9317C14.7632 19.5704 14.6433 19.3364 14.3633 19.1512C14.1618 19.0179 13.7747 18.9679 13.5285 19.0432ZM17.6146 19.0432C17.3908 19.1116 17.1034 19.4189 17.0387 19.6588C16.9263 20.0761 17.0934 20.5147 17.4489 20.7356C17.7153 20.9011 18.174 20.8944 18.436 20.7211C18.7292 20.5272 18.8493 20.2977 18.8493 19.9317C18.8493 19.5704 18.7294 19.3364 18.4494 19.1512C18.248 19.0179 17.8609 18.9679 17.6146 19.0432ZM21.7007 19.0432C21.4769 19.1116 21.1895 19.4189 21.1249 19.6588C21.0124 20.0761 21.1795 20.5147 21.535 20.7356C21.8014 20.9011 22.2601 20.8944 22.5221 20.7211C22.8153 20.5272 22.9354 20.2977 22.9354 19.9317C22.9354 19.5704 22.8155 19.3364 22.5355 19.1512C22.3341 19.0179 21.947 18.9679 21.7007 19.0432ZM25.7868 19.0432C25.563 19.1116 25.2756 19.4189 25.211 19.6588C25.0985 20.0761 25.2656 20.5147 25.6211 20.7356C25.8875 20.9011 26.3462 20.8944 26.6082 20.7211C26.9014 20.5272 27.0215 20.2977 27.0215 19.9317C27.0215 19.5704 26.9016 19.3364 26.6216 19.1512C26.4202 19.0179 26.0331 18.9679 25.7868 19.0432ZM13.5285 23.1268C13.3047 23.1953 13.0173 23.5026 12.9526 23.7425C12.8402 24.1598 13.0073 24.5984 13.3628 24.8193C13.6292 24.9848 14.0879 24.978 14.3499 24.8047C14.6431 24.6108 14.7632 24.3814 14.7632 24.0153C14.7632 23.654 14.6433 23.42 14.3633 23.2348C14.1618 23.1016 13.7747 23.0515 13.5285 23.1268ZM17.6146 23.1268C17.3908 23.1953 17.1034 23.5026 17.0387 23.7425C16.9263 24.1598 17.0934 24.5984 17.4489 24.8193C17.7153 24.9848 18.174 24.978 18.436 24.8047C18.7292 24.6108 18.8493 24.3814 18.8493 24.0153C18.8493 23.654 18.7294 23.42 18.4494 23.2348C18.248 23.1016 17.8609 23.0515 17.6146 23.1268ZM21.7007 23.1268C21.4769 23.1953 21.1895 23.5026 21.1249 23.7425C21.0124 24.1598 21.1795 24.5984 21.535 24.8193C21.8014 24.9848 22.2601 24.978 22.5221 24.8047C22.8153 24.6108 22.9354 24.3814 22.9354 24.0153C22.9354 23.654 22.8155 23.42 22.5355 23.2348C22.3341 23.1016 21.947 23.0515 21.7007 23.1268Z" fill="#272E35"/>
</g>
<defs>
<filter id="filter0_d_3300_32003" x="0" y="0" width="40" height="40" filterUnits="userSpaceOnUse" color-interpolation-filters="sRGB">
<feFlood flood-opacity="0" result="BackgroundImageFix"/>
<feColorMatrix in="SourceAlpha" type="matrix" values="0 0 0 0 0 0 0 0 0 0 0 0 0 0 0 0 0 0 127 0" result="hardAlpha"/>
<feOffset dy="2"/>
<feGaussianBlur stdDeviation="4"/>
<feComposite in2="hardAlpha" operator="out"/>
<feColorMatrix type="matrix" values="0 0 0 0 0 0 0 0 0 0 0 0 0 0 0 0 0 0 0.05 0"/>
<feBlend mode="normal" in2="BackgroundImageFix" result="effect1_dropShadow_3300_32003"/>
<feBlend mode="normal" in="SourceGraphic" in2="effect1_dropShadow_3300_32003" result="shape"/>
</filter>
</defs>
</svg>
