<svg width="24" height="24" viewBox="0 0 24 24" fill="none" xmlns="http://www.w3.org/2000/svg">
<g id="Icon">
<path id="Union" fill-rule="evenodd" clip-rule="evenodd" d="M18.5752 8.29289C18.1846 7.90237 17.5515 7.90237 17.1609 8.29289L10.7913 14.6625L7.20711 11.0783C6.81658 10.6878 6.18342 10.6878 5.79289 11.0783C5.40237 11.4689 5.40237 12.102 5.79289 12.4926L10.0355 16.7352C10.072 16.7716 10.1105 16.8046 10.1507 16.8343C10.5436 17.1677 11.1332 17.149 11.5041 16.7782L18.5752 9.70711C18.9657 9.31658 18.9657 8.68342 18.5752 8.29289Z" fill="#272E35"/>
<path id="Ellipse 5 (Stroke)" fill-rule="evenodd" clip-rule="evenodd" d="M12 22C17.5228 22 22 17.5228 22 12C22 6.47715 17.5228 2 12 2C6.47715 2 2 6.47715 2 12C2 17.5228 6.47715 22 12 22ZM12 24C18.6274 24 24 18.6274 24 12C24 5.37258 18.6274 0 12 0C5.37258 0 0 5.37258 0 12C0 18.6274 5.37258 24 12 24Z" fill="#272E35"/>
</g>
</svg>
