<svg width="24" height="24" viewBox="0 0 24 24" fill="none" xmlns="http://www.w3.org/2000/svg">
<g id="Icon">
<path id="Union" fill-rule="evenodd" clip-rule="evenodd" d="M6.70696 6.70696C6.31643 7.09748 6.31643 7.73064 6.70696 8.12117L10.9497 12.3639L6.70698 16.6066C6.31646 16.9971 6.31646 17.6303 6.70698 18.0208C7.09751 18.4113 7.73067 18.4113 8.1212 18.0208L12.3639 13.7781L16.6065 18.0207C16.997 18.4112 17.6301 18.4112 18.0207 18.0207C18.4112 17.6301 18.4112 16.997 18.0207 16.6065L13.7781 12.3639L18.0207 8.12132C18.4112 7.7308 18.4112 7.09763 18.0207 6.70711C17.6302 6.31658 16.997 6.31658 16.6065 6.70711L12.3639 10.9497L8.12117 6.70696C7.73064 6.31643 7.09748 6.31643 6.70696 6.70696Z" fill="#272E35"/>
<path id="Ellipse 5 (Stroke)" fill-rule="evenodd" clip-rule="evenodd" d="M12 22C17.5228 22 22 17.5228 22 12C22 6.47715 17.5228 2 12 2C6.47715 2 2 6.47715 2 12C2 17.5228 6.47715 22 12 22ZM12 24C18.6274 24 24 18.6274 24 12C24 5.37258 18.6274 0 12 0C5.37258 0 0 5.37258 0 12C0 18.6274 5.37258 24 12 24Z" fill="#272E35"/>
</g>
</svg>
