<svg width="41" height="41" viewBox="0 0 41 41" fill="none" xmlns="http://www.w3.org/2000/svg">
<g filter="url(#filter0_d_3356_20294)">
<path d="M13.0804 10.4419C13.2734 10.1523 13.5387 9.91813 13.8501 9.76247L17.9527 7.71115C18.2304 7.57229 18.5366 7.5 18.8471 7.5H18.875C19.9796 7.5 20.875 8.39543 20.875 9.5V27.5C20.875 28.6046 19.9796 29.5 18.875 29.5H18.5766C18.1224 29.5 17.6818 29.3454 17.3272 29.0617L15.5405 27.6324C15.4305 27.5444 15.3115 27.4682 15.1855 27.4052L12.9713 26.2981C12.5842 26.1046 12.2704 25.7908 12.0769 25.4037L10.9732 23.1964C10.9079 23.0658 10.8571 22.9286 10.8218 22.787L9.96218 19.3487C9.90452 19.1181 9.88844 18.879 9.91469 18.6428L10.3213 14.9836C10.3566 14.6659 10.4676 14.3612 10.6449 14.0951L13.0804 10.4419Z" fill="#FCDEC0"/>
<path fill-rule="evenodd" clip-rule="evenodd" d="M17.8284 6.57146C17.4142 6.66019 16.7379 7.00693 16.4097 7.29882C16.2586 7.43317 16.0058 7.74184 15.8367 7.9982C15.3458 8.74286 15.1866 8.83591 14.3124 8.88944C13.3693 8.94719 12.7914 9.19554 12.182 9.80506C11.5725 10.4145 11.3242 10.9925 11.2665 11.9357C11.2129 12.81 11.1199 12.9691 10.3753 13.4601C9.81067 13.8324 9.5001 14.1741 9.22501 14.7254C8.73905 15.6993 8.75817 16.5844 9.28834 17.6551C9.53033 18.1438 9.55527 18.2226 9.55527 18.4988C9.55527 18.7751 9.53033 18.8539 9.28834 19.3426C8.75817 20.4133 8.73905 21.2984 9.22501 22.2723C9.5001 22.8236 9.81067 23.1652 10.3753 23.5376C11.1199 24.0286 11.2129 24.1877 11.2665 25.062C11.3242 26.0052 11.5725 26.5831 12.182 27.1926C12.7914 27.8021 13.3693 28.0505 14.3124 28.1082C15.1866 28.1618 15.3458 28.2548 15.8367 28.9995C16.209 29.5641 16.5506 29.8747 17.1019 30.1498C18.0758 30.6358 18.9608 30.6167 20.0314 30.0865C20.5201 29.8445 20.5988 29.8195 20.8751 29.8195C21.1513 29.8195 21.2301 29.8445 21.7187 30.0865C22.7954 30.6197 23.6677 30.6362 24.6685 30.1421C25.1947 29.8823 25.6664 29.4415 25.9552 28.9397C26.2058 28.5043 26.4207 28.3224 26.8322 28.1974C27.081 28.1219 27.2155 28.0485 27.3474 27.9167C27.7648 27.4993 27.6884 26.8069 27.1885 26.4762C27.0249 26.3679 26.9525 26.3511 26.6671 26.355C25.8566 26.3661 24.9352 26.9745 24.4371 27.8273C24.2078 28.22 23.9573 28.4483 23.6404 28.5536C23.2624 28.6792 22.9678 28.6297 22.4264 28.3496C21.8233 28.0376 21.4858 27.9509 20.8751 27.9509C20.2643 27.9509 19.9268 28.0376 19.3237 28.3496C18.7823 28.6297 18.4878 28.6792 18.1097 28.5536C17.7891 28.4471 17.5419 28.2194 17.3032 27.8106C16.7591 26.8788 15.7937 26.3123 14.6481 26.2527C14.0543 26.2217 13.8004 26.1404 13.536 25.8967C13.2523 25.6352 13.1587 25.3743 13.1253 24.7522C13.0625 23.5803 12.5029 22.6193 11.5641 22.071C11.1558 21.8325 10.9276 21.5851 10.8216 21.2659C10.6934 20.8801 10.7389 20.6036 11.0196 20.0609C11.3371 19.447 11.4238 19.1121 11.4238 18.4988C11.4238 17.8856 11.3371 17.5506 11.0196 16.9368C10.7389 16.394 10.6934 16.1176 10.8216 15.7317C10.9276 15.4126 11.1558 15.1652 11.5641 14.9267C12.4958 14.3825 13.0622 13.417 13.1219 12.2714C13.1523 11.6861 13.2324 11.4291 13.4643 11.1716C13.7101 10.8986 13.9579 10.8063 14.5675 10.7607C15.826 10.6666 16.7963 10.0828 17.3725 9.07296C17.6385 8.60688 18.11 8.34274 18.6032 8.38366C18.7844 8.39866 18.9785 8.46949 19.3131 8.64255C19.9269 8.96008 20.2619 9.0468 20.8751 9.0468C21.4868 9.0468 21.8177 8.9614 22.4422 8.64232C22.9913 8.36177 23.2596 8.31756 23.6419 8.44455C23.961 8.55053 24.2085 8.77882 24.4469 9.1871C24.991 10.1189 25.9564 10.6853 27.102 10.745C27.6958 10.7759 27.9497 10.8572 28.2141 11.1009C28.4979 11.3625 28.5915 11.6234 28.6248 12.2455C28.6876 13.4174 29.2472 14.3784 30.186 14.9267C30.5948 15.1654 30.8225 15.4127 30.929 15.7332C31.0546 16.1113 31.0051 16.4059 30.725 16.9474C30.4131 17.5505 30.3263 17.888 30.3263 18.4988C30.3263 19.1097 30.4131 19.4471 30.725 20.0503C31.0051 20.5918 31.0546 20.8863 30.929 21.2644C30.8232 21.5829 30.5952 21.832 30.1961 22.0651C29.3074 22.5842 28.5808 23.6703 28.6729 24.342C28.7303 24.7614 29.0437 25.0797 29.4546 25.136C29.9386 25.2024 30.3325 24.938 30.5214 24.4199C30.6496 24.0684 30.8688 23.8347 31.3049 23.5848C31.8064 23.2974 32.2615 22.811 32.5211 22.2851C33.0112 21.2921 32.9935 20.4165 32.4618 19.3426C32.2198 18.8539 32.1948 18.7751 32.1948 18.4988C32.1948 18.2226 32.2198 18.1438 32.4618 17.6551C32.9919 16.5844 33.0111 15.6993 32.5251 14.7254C32.25 14.1741 31.9394 13.8324 31.3748 13.4601C30.6302 12.9691 30.5372 12.81 30.4837 11.9357C30.4259 10.9925 30.1776 10.4145 29.5681 9.80506C28.9587 9.19554 28.3808 8.94719 27.4377 8.88944C26.5637 8.83591 26.4042 8.74277 25.9142 7.99937C25.4515 7.29775 24.9549 6.90591 24.2122 6.65659C23.4042 6.38532 22.6169 6.46562 21.7187 6.91088C21.2299 7.15328 21.1514 7.17812 20.8751 7.17812C20.5988 7.17812 20.5201 7.15318 20.0314 6.91116C19.2314 6.51497 18.569 6.41283 17.8284 6.57146ZM20.711 13.3292C19.4172 13.5081 18.1889 14.4775 17.5373 15.834L17.3875 16.1457L16.8463 16.1622C16.2229 16.1811 16.0429 16.2564 15.8215 16.591C15.7168 16.7493 15.6958 16.8331 15.6958 17.0926C15.6958 17.3521 15.7168 17.4358 15.8215 17.5941C16.0056 17.8724 16.2283 17.9919 16.6142 18.0195L16.9379 18.0427V18.4755V18.9084L16.5877 18.9308C16.1786 18.9571 15.9402 19.085 15.7601 19.3746C15.5948 19.6405 15.6016 20.0983 15.7746 20.3598C15.9995 20.6996 16.1727 20.7698 16.8323 20.7888L17.4064 20.8054L17.5453 21.0935C17.9965 22.0298 18.7815 22.8356 19.633 23.2366C20.8505 23.8099 22.1797 23.7046 23.3152 22.945C23.7668 22.6429 24.3244 22.0793 24.5351 21.7119C24.9058 21.0657 24.4715 20.2769 23.7474 20.2811C23.4565 20.2828 23.2107 20.4286 22.9188 20.7727C22.5646 21.1902 22.3227 21.3885 21.9531 21.5644C21.6824 21.6932 21.6012 21.7094 21.2242 21.7096C20.8281 21.7098 20.7762 21.6981 20.4442 21.534C20.2206 21.4235 19.9867 21.2581 19.8144 21.0887L19.5403 20.8192L20.2194 20.7957C20.9948 20.769 21.1498 20.7109 21.3821 20.3598C21.4864 20.202 21.5078 20.1174 21.5078 19.8616C21.5078 19.4925 21.389 19.2643 21.0955 19.0699C20.9058 18.9442 20.9047 18.9441 19.8592 18.9292L18.8127 18.9143V18.4754V18.0365L19.8592 18.0216C20.9047 18.0066 20.9058 18.0065 21.0955 17.8809C21.388 17.6872 21.5078 17.458 21.5078 17.0926C21.5078 16.7271 21.388 16.498 21.0954 16.3043C20.9159 16.1853 20.8672 16.1772 20.2024 16.1551L19.4993 16.1316L19.7912 15.8401C20.6872 14.9447 21.8659 14.9558 22.7027 15.8673C22.8597 16.0385 23.0601 16.2565 23.1479 16.3518C23.5297 16.7665 24.2408 16.6845 24.5693 16.1879C24.6743 16.0292 24.6951 15.946 24.6951 15.6837C24.6951 15.3944 24.6803 15.3479 24.5076 15.0944C24.2286 14.6847 23.6648 14.1421 23.2512 13.885C22.5111 13.4251 21.5452 13.2138 20.711 13.3292Z" fill="#272E35"/>
</g>
<defs>
<filter id="filter0_d_3356_20294" x="0.875" y="0" width="40.125" height="40.5" filterUnits="userSpaceOnUse" color-interpolation-filters="sRGB">
<feFlood flood-opacity="0" result="BackgroundImageFix"/>
<feColorMatrix in="SourceAlpha" type="matrix" values="0 0 0 0 0 0 0 0 0 0 0 0 0 0 0 0 0 0 127 0" result="hardAlpha"/>
<feOffset dy="2"/>
<feGaussianBlur stdDeviation="4"/>
<feComposite in2="hardAlpha" operator="out"/>
<feColorMatrix type="matrix" values="0 0 0 0 0 0 0 0 0 0 0 0 0 0 0 0 0 0 0.05 0"/>
<feBlend mode="normal" in2="BackgroundImageFix" result="effect1_dropShadow_3356_20294"/>
<feBlend mode="normal" in="SourceGraphic" in2="effect1_dropShadow_3356_20294" result="shape"/>
</filter>
</defs>
</svg>
