<svg width="24" height="24" viewBox="0 0 24 24" fill="none" xmlns="http://www.w3.org/2000/svg">
<path d="M12.9922 16.4373L12.9992 0.999266C12.9992 0.734049 12.8939 0.479697 12.7063 0.29216C12.5188 0.104624 12.2644 -0.000733861 11.9992 -0.000733837C11.734 -0.000733814 11.4796 0.104624 11.2921 0.292161C11.1046 0.479697 10.9992 0.734049 10.9992 0.999266L10.9922 16.4203L8.08021 13.5073C7.89269 13.3198 7.63838 13.2145 7.37321 13.2145C7.10805 13.2145 6.85374 13.3198 6.66621 13.5073C6.47874 13.6948 6.37343 13.9491 6.37343 14.2143C6.37343 14.4794 6.47874 14.7337 6.66621 14.9213L9.87721 18.1363C10.1558 18.415 10.4866 18.6362 10.8507 18.7871C11.2148 18.938 11.6051 19.0156 11.9992 19.0156C12.3933 19.0156 12.7836 18.938 13.1477 18.7871C13.5118 18.6362 13.8426 18.415 14.1212 18.1363L17.3322 14.9243C17.5197 14.7367 17.625 14.4824 17.625 14.2173C17.625 13.9521 17.5197 13.6978 17.3322 13.5103C17.1447 13.3228 16.8904 13.2175 16.6252 13.2175C16.36 13.2175 16.1057 13.3228 15.9182 13.5103L12.9922 16.4373Z" fill="#1D7C4D"/>
<path d="M22 17V21C22 21.2652 21.8946 21.5196 21.7071 21.7071C21.5196 21.8946 21.2652 22 21 22H3C2.73478 22 2.48043 21.8946 2.29289 21.7071C2.10536 21.5196 2 21.2652 2 21V17C2 16.7348 1.89464 16.4804 1.70711 16.2929C1.51957 16.1054 1.26522 16 1 16C0.734784 16 0.48043 16.1054 0.292893 16.2929C0.105357 16.4804 0 16.7348 0 17L0 21C0 21.7956 0.31607 22.5587 0.87868 23.1213C1.44129 23.6839 2.20435 24 3 24H21C21.7956 24 22.5587 23.6839 23.1213 23.1213C23.6839 22.5587 24 21.7956 24 21V17C24 16.7348 23.8946 16.4804 23.7071 16.2929C23.5196 16.1054 23.2652 16 23 16C22.7348 16 22.4804 16.1054 22.2929 16.2929C22.1054 16.4804 22 16.7348 22 17Z" fill="#272E35"/>
</svg>
