<svg width="24" height="24" viewBox="0 0 24 24" fill="none" xmlns="http://www.w3.org/2000/svg">
<path fill-rule="evenodd" clip-rule="evenodd" d="M12 2.18182C6.57757 2.18182 2.18182 6.57757 2.18182 12C2.18182 17.4224 6.57757 21.8182 12 21.8182C17.4224 21.8182 21.8182 17.4224 21.8182 12C21.8182 6.57757 17.4224 2.18182 12 2.18182ZM0 12C0 5.37258 5.37258 0 12 0C18.6274 0 24 5.37258 24 12C24 18.6274 18.6274 24 12 24C5.37258 24 0 18.6274 0 12Z" fill="#272E35"/>
<path fill-rule="evenodd" clip-rule="evenodd" d="M12 6.54545C12.6025 6.54545 13.0909 7.03387 13.0909 7.63636V12C13.0909 12.6025 12.6025 13.0909 12 13.0909C11.3975 13.0909 10.9091 12.6025 10.9091 12V7.63636C10.9091 7.03387 11.3975 6.54545 12 6.54545Z" fill="#272E35"/>
<path fill-rule="evenodd" clip-rule="evenodd" d="M10.9091 16.3636C10.9091 15.7611 11.3975 15.2727 12 15.2727H12.0109C12.6134 15.2727 13.1018 15.7611 13.1018 16.3636C13.1018 16.9661 12.6134 17.4545 12.0109 17.4545H12C11.3975 17.4545 10.9091 16.9661 10.9091 16.3636Z" fill="#272E35"/>
</svg>
