<svg width="28" height="24" viewBox="0 0 28 24" fill="none" xmlns="http://www.w3.org/2000/svg">
<g filter="url(#filter0_d_3006_9777)">
<path fill-rule="evenodd" clip-rule="evenodd" d="M5.28376 2.02044C4.49613 2.11485 3.81472 2.3198 3.1544 2.66084C1.54599 3.4916 0.409472 5.02754 0.0731898 6.82489C0.004227 7.19339 0 7.49283 0 12.0071C0 16.5214 0.004227 16.8208 0.0731898 17.1893C0.52454 19.6016 2.40008 21.4758 4.81409 21.9269C5.18297 21.9958 5.48341 22 10.0391 22H14.8728L15.2838 21.9097C17.0977 21.5109 18.529 20.4343 19.3507 18.8507C19.615 18.3413 19.7777 17.8862 19.9096 17.2871L20 16.8764V12.0462C20 7.49373 19.9958 7.19351 19.9268 6.82489C19.5055 4.57299 17.8447 2.77391 15.6476 2.18928C14.9339 1.9994 14.8272 1.99584 9.96086 2.00127C7.45303 2.00409 5.34834 2.01273 5.28376 2.02044ZM15.0685 4.05621C16.6281 4.47552 17.736 5.67213 18.0046 7.2273C18.0569 7.53061 18.0632 8.17442 18.0528 12.1676C18.0409 16.7244 18.0401 16.7615 17.9566 17.072C17.5589 18.5502 16.4496 19.6346 14.9902 19.972C14.6948 20.0403 14.4126 20.0444 10 20.0444C5.59499 20.0444 5.30501 20.0403 5.01558 19.9724C3.51425 19.6207 2.37432 18.4836 2.02939 16.9938C1.96106 16.6986 1.95695 16.4166 1.95695 12.0071C1.95695 7.58869 1.96094 7.31624 2.02975 7.02044C2.34513 5.66505 3.32505 4.58621 4.63859 4.1482C5.22203 3.95366 5.16278 3.95566 10.1174 3.96411C14.7294 3.97201 14.7571 3.97251 15.0685 4.05621ZM4.79452 7.83853V8.51973L5 8.56267C5.11299 8.5863 5.33315 8.63354 5.48924 8.66765L5.77299 8.72964V12.0084C5.77299 15.0976 5.76904 15.2883 5.7045 15.3066C5.66681 15.3173 5.44665 15.3654 5.21526 15.4135L4.79452 15.5011V16.179V16.8569H6.96673H9.13894V16.1783V15.4999L8.60078 15.4125C8.30481 15.3644 8.02301 15.3158 7.97456 15.3045L7.8865 15.284V13.0315C7.8865 11.6282 7.90035 10.793 7.92321 10.8162C7.94341 10.8366 8.8391 12.1997 9.91358 13.8453L11.8672 16.8373L13.0274 16.8477L14.1875 16.8581L14.1975 12.7997L14.2074 8.74133L14.4031 8.69542C14.5108 8.67015 14.7353 8.61997 14.9022 8.58391L15.2055 8.51836V7.83786V7.15733H13.0333H10.8611V7.84178C10.8611 8.21822 10.8719 8.52622 10.8851 8.52622C10.9355 8.52622 12.0924 8.72678 12.103 8.73734C12.1091 8.74348 12.1096 9.79283 12.104 11.0693L12.0939 13.3901L10.1415 10.2737L8.18912 7.15733H6.49182H4.79452V7.83853Z" fill="#272E35"/>
</g>
<defs>
<filter id="filter0_d_3006_9777" x="-8" y="-4" width="36" height="36" filterUnits="userSpaceOnUse" color-interpolation-filters="sRGB">
<feFlood flood-opacity="0" result="BackgroundImageFix"/>
<feColorMatrix in="SourceAlpha" type="matrix" values="0 0 0 0 0 0 0 0 0 0 0 0 0 0 0 0 0 0 127 0" result="hardAlpha"/>
<feOffset dy="2"/>
<feGaussianBlur stdDeviation="4"/>
<feComposite in2="hardAlpha" operator="out"/>
<feColorMatrix type="matrix" values="0 0 0 0 0 0 0 0 0 0 0 0 0 0 0 0 0 0 0.05 0"/>
<feBlend mode="normal" in2="BackgroundImageFix" result="effect1_dropShadow_3006_9777"/>
<feBlend mode="normal" in="SourceGraphic" in2="effect1_dropShadow_3006_9777" result="shape"/>
</filter>
</defs>
</svg>
