<svg width="24" height="24" viewBox="0 0 24 24" fill="none" xmlns="http://www.w3.org/2000/svg">
<path fill-rule="evenodd" clip-rule="evenodd" d="M6.66667 2C5.74619 2 5 2.74619 5 3.66667V20.3333C5 21.2538 5.74619 22 6.66667 22H18C18.9205 22 19.6667 21.2538 19.6667 20.3333V8.66667H14C13.4477 8.66667 13 8.21895 13 7.66667V2H6.66667ZM15 3.41421L18.2525 6.66667H15V3.41421ZM3 3.66667C3 1.64162 4.64162 0 6.66667 0H14C14.2652 0 14.5196 0.105357 14.7071 0.292893L21.3738 6.95956C21.5613 7.1471 21.6667 7.40145 21.6667 7.66667V20.3333C21.6667 22.3584 20.025 24 18 24H6.66667C4.64162 24 3 22.3584 3 20.3333V3.66667Z" fill="#272E35"/>
<path fill-rule="evenodd" clip-rule="evenodd" d="M8 11.5889V12.1778L8.17763 12.2149C8.27531 12.2353 8.46563 12.2761 8.60056 12.3056L8.84586 12.3592V15.1936C8.84586 17.8641 8.84245 18.029 8.78665 18.0448C8.75407 18.0541 8.56375 18.0956 8.36372 18.1373L8 18.2129V18.799V19.385H9.87782H11.7556V18.7984V18.2119L11.2904 18.1364C11.0346 18.0948 10.7909 18.0528 10.7491 18.043L10.6729 18.0253V16.0781C10.6729 14.865 10.6849 14.143 10.7047 14.163C10.7221 14.1806 11.4964 15.359 12.4253 16.7816L14.1142 19.3681L15.1171 19.3771L16.12 19.386L16.1286 15.8777L16.1372 12.3693L16.3064 12.3296C16.3994 12.3078 16.5936 12.2644 16.7378 12.2332L17 12.1766V11.5883V11H15.1222H13.2444V11.5917C13.2444 11.9171 13.2537 12.1834 13.2651 12.1834C13.3087 12.1834 14.3089 12.3567 14.318 12.3659C14.3233 12.3712 14.3237 13.2783 14.3189 14.3818L14.3102 16.3881L12.6223 13.6941L10.9345 11H9.46727H8V11.5889Z" fill="#272E35"/>
</svg>
