<svg width="24" height="24" viewBox="0 0 24 24" fill="none" xmlns="http://www.w3.org/2000/svg">
<path fill-rule="evenodd" clip-rule="evenodd" d="M13.4475 0.375341C13.7925 0.806601 13.7226 1.43589 13.2913 1.7809L12.1841 2.6667H12.3333C13.597 2.6667 14.8044 2.91838 15.9062 3.3753C17.0477 3.84866 18.074 4.54144 18.933 5.40038C19.7919 6.25928 20.4846 7.28554 20.958 8.427C21.4149 9.52887 21.6666 10.7363 21.6666 12C21.6666 13.2637 21.4149 14.4711 20.958 15.573C20.7464 16.0831 20.1614 16.3252 19.6512 16.1136C19.1411 15.9021 18.899 15.317 19.1105 14.8069C19.4685 13.9436 19.6666 12.9962 19.6666 12C19.6666 11.0038 19.4685 10.0564 19.1105 9.19312C18.7392 8.29764 18.1949 7.49076 17.5188 6.81458C16.8426 6.13838 16.0356 5.5941 15.1401 5.22275C14.2769 4.86477 13.3295 4.66669 12.3333 4.66669H12.1841L13.2913 5.55248C13.7226 5.89749 13.7925 6.52678 13.4475 6.95804C13.1025 7.3893 12.4732 7.45923 12.0419 7.11422L8.70861 4.44756C8.4714 4.25779 8.33331 3.97047 8.33331 3.66669C8.33331 3.36291 8.4714 3.0756 8.70861 2.88583L12.0419 0.219167C12.4732 -0.125841 13.1025 -0.05592 13.4475 0.375341ZM5.01533 7.88648C5.52549 8.09803 5.76757 8.68309 5.55602 9.19325C5.19806 10.0565 4.99999 11.0039 4.99999 12C4.99999 12.9961 5.19806 13.9435 5.55601 14.8067C5.92737 15.7023 6.47166 16.5092 7.14789 17.1855C7.82409 17.8616 8.631 18.4059 9.52652 18.7773C10.3898 19.1352 11.3371 19.3333 12.3333 19.3333H12.4825L11.3753 18.4475C10.944 18.1025 10.8741 17.4732 11.2191 17.042C11.5641 16.6107 12.1934 16.5408 12.6247 16.8858L15.958 19.5524C16.1952 19.7422 16.3333 20.0295 16.3333 20.3333C16.3333 20.6371 16.1952 20.9244 15.958 21.1142L12.6247 23.7808C12.1934 24.1258 11.5641 24.0559 11.2191 23.6247C10.8741 23.1934 10.944 22.5641 11.3753 22.2191L12.4825 21.3333H12.3333C11.0697 21.3333 9.86226 21.0816 8.76043 20.6247C7.61892 20.1514 6.59262 19.4586 5.73369 18.5997C4.87472 17.7407 4.18192 16.7144 3.70855 15.5728C3.25167 14.471 3 13.2636 3 12C3 10.7364 3.25167 9.52899 3.70856 8.42717C3.92011 7.91701 4.50517 7.67493 5.01533 7.88648Z" fill="#272E35"/>
</svg>
