<svg width="24" height="24" viewBox="0 0 24 24" fill="none" xmlns="http://www.w3.org/2000/svg">
<g id="Icon">
<path id="image 55 (Traced)" fill-rule="evenodd" clip-rule="evenodd" d="M11.3767 1.03729C10.2075 1.22002 9.14862 1.89186 8.49266 2.86724C8.27399 3.19235 0.616737 16.4874 0.422583 16.8791C-0.24019 18.2159 -0.115779 19.8748 0.74251 21.1446C1.32084 22.0003 2.20449 22.6222 3.22824 22.894L3.62744 23H11.9403C20.8536 23 20.4888 23.0093 21.1803 22.7623C21.8118 22.5367 22.2515 22.2563 22.7365 21.77C23.1223 21.3832 23.3653 21.0354 23.6138 20.5142C23.9136 19.8855 24 19.483 24 18.7153C24 17.9494 23.9135 17.5451 23.6165 16.9221C23.4423 16.5568 16.0798 3.73395 15.633 3.01777C15.1846 2.29894 14.3473 1.57395 13.6707 1.31866C12.9535 1.04802 12.0316 0.934929 11.3767 1.03729ZM12.3864 2.96833C12.9496 3.05835 13.5118 3.39039 13.8342 3.82337C14.0427 4.10351 21.6724 17.3339 21.879 17.7737C22.2002 18.4572 22.126 19.3221 21.6876 20.007C21.3309 20.5642 20.6999 20.9576 20.0183 21.0475C19.7642 21.0811 17.0881 21.0927 11.7524 21.0833L3.86227 21.0695L3.54572 20.9618C2.25253 20.5219 1.58121 19.0479 2.11897 17.829C2.21351 17.6146 9.7408 4.51295 10.0753 3.98053C10.4483 3.38676 11.2162 2.95745 11.9638 2.92463C12.0283 2.92181 12.2185 2.94149 12.3864 2.96833ZM11.7117 7.79261C11.316 7.89337 11.0146 8.17596 10.8339 8.61591C10.7452 8.8317 10.7502 9.13251 10.8778 11.2291C10.9361 12.1872 11.0107 13.4182 11.0437 13.9646C11.1157 15.1599 11.1602 15.2863 11.5847 15.5019C11.8738 15.6487 12.0765 15.664 12.3292 15.5583C12.735 15.3887 12.9522 15.0021 12.948 14.4575C12.9468 14.3133 13.0149 13.0047 13.0993 11.5496C13.2684 8.6339 13.2692 8.65942 12.9944 8.25892C12.7291 7.87237 12.1811 7.67316 11.7117 7.79261ZM11.6817 16.52C11.1149 16.7065 10.7562 17.2198 10.7986 17.7838C10.8495 18.4609 11.3395 18.9239 12.0076 18.9262C12.4846 18.9278 12.8792 18.683 13.1022 18.247C13.222 18.0127 13.235 17.4832 13.127 17.2288C13.0265 16.9918 12.7809 16.7258 12.5566 16.6111C12.3498 16.5053 11.8763 16.456 11.6817 16.52Z" fill="#7A4510"/>
</g>
</svg>
