<svg id="Ebene_1" data-name="Ebene 1" xmlns="http://www.w3.org/2000/svg" xmlns:xlink="http://www.w3.org/1999/xlink" viewBox="0 0 16 16"><defs><clipPath id="clip-path"><path d="M36.07-8.44,36.28-9l-.59-.09a.34.34,0,0,1,0-.67l.59-.09-.21-.55a.34.34,0,0,1,.57-.34l.38.46.37-.46a.34.34,0,0,1,.57.34l-.21.55.59.09a.34.34,0,0,1,0,.67L37.75-9l.21.55a.33.33,0,0,1-.57.33L37-8.56l-.38.45A.33.33,0,0,1,36.07-8.44ZM29.82-12l.43-1.13-1.19-.19a.38.38,0,0,1,0-.75l1.19-.19-.43-1.13a.38.38,0,0,1,.65-.38l.76.94.76-.94a.38.38,0,0,1,.65.38l-.43,1.13,1.19.19a.38.38,0,0,1,0,.75l-1.19.19L32.64-12a.38.38,0,0,1-.65.38l-.76-.94-.76.94A.38.38,0,0,1,29.82-12Zm6.09-2.28,1.86-1.38a.51.51,0,0,1,.58,0l1.87,1.38L40-16.61a.49.49,0,0,1,.29-.51l2.11-.94L40.26-19a.5.5,0,0,1-.29-.51l.25-2.31-1.87,1.37a.48.48,0,0,1-.58,0l-1.86-1.37.25,2.31a.51.51,0,0,1-.29.51l-2.12.94,2.12.94a.5.5,0,0,1,.29.51Zm-1.52,1.5.37-3.4-3.13-1.38a.55.55,0,0,1,0-1L34.76-20l-.37-3.4a.55.55,0,0,1,.87-.5l2.76,2,2.76-2a.55.55,0,0,1,.87.5L41.28-20l3.13,1.38a.55.55,0,0,1,0,1L41.28-16.2l.37,3.4a.55.55,0,0,1-.87.51l-2.76-2-2.76,2A.55.55,0,0,1,34.39-12.8Z" style="fill:none"/></clipPath><clipPath id="clip-path-2"><path d="M-47.43-19.84A1.91,1.91,0,0,1-45.5-18v4.9a.68.68,0,0,1-.68.66.67.67,0,0,1-.68-.66V-18a.57.57,0,0,0-.55-.55h-2.46v5.46a.68.68,0,0,1-.68.66.68.68,0,0,1-.69-.66v-5.46h-2.43a.57.57,0,0,0-.57.56v4.9a.68.68,0,0,1-.68.66.68.68,0,0,1-.69-.66V-18a1.91,1.91,0,0,1,1.94-1.88ZM-46-23H-55.1a2.36,2.36,0,0,0-2.36,2.35v9.1A2.36,2.36,0,0,0-55.1-9.23H-46a2.36,2.36,0,0,0,2.36-2.36v-9.1a2.31,2.31,0,0,0-.12-.75A2.36,2.36,0,0,0-46-23Zm0-1.1a3.46,3.46,0,0,1,3.46,3.45v9.1A3.46,3.46,0,0,1-46-8.14H-55.1a3.45,3.45,0,0,1-3.45-3.45v-9.1a3.45,3.45,0,0,1,3.45-3.45Z" style="fill:none;clip-rule:evenodd"/></clipPath><clipPath id="clip-path-3"><path d="M-14.44-18.74l1,.17h0A.51.51,0,0,1-13-18l-.88,5.52a3,3,0,0,1-2.54,2.53l.65,1.57.05.13a.47.47,0,0,1-.37.56A.58.58,0,0,1-16.75-8l-.75-1.86h-6.95l-.66,1.75a.67.67,0,0,1-.81.43.52.52,0,0,1-.33-.65l.6-1.57a3,3,0,0,1-2.48-2.52L-29-18h0a.5.5,0,0,1,.42-.59l1-.17a2.28,2.28,0,0,1,1.82.4l.08.06L-26-20.12a3.15,3.15,0,0,1,.71-2.47A3,3,0,0,1-23-23.66h3.88a3,3,0,0,1,2.29,1.07,3.11,3.11,0,0,1,.71,2.47l-.25,1.84.07-.06A2.28,2.28,0,0,1-14.44-18.74Zm-8.24-3.61a2,2,0,0,0-1.52.71A2.07,2.07,0,0,0-24.64-20l.7,5.31h5.84l.74-5.31a2.13,2.13,0,0,0-.47-1.65,2,2,0,0,0-1.52-.71Zm7.52,9.49.71-4.49-.26-.09A1.8,1.8,0,0,0-16-17.2a1.39,1.39,0,0,0-.58,1v.05l-.31,2.24a.52.52,0,0,1-.51.45h-7.28a.51.51,0,0,1-.5-.45l-.32-2.24v-.05a1.47,1.47,0,0,0-.58-1,1.37,1.37,0,0,0-1.09-.24l-.42.09.71,4.49a1.73,1.73,0,0,0,1.94,1.67h7.36C-16.26-11.19-15.44-11.58-15.16-12.86Z" style="fill:none;clip-rule:evenodd"/></clipPath><clipPath id="clip-path-4"><path d="M8.2-10.82l5.33-6h0a3.42,3.42,0,0,0,0-4.43,2.56,2.56,0,0,0-3.94,0l-1.07,1.2a.5.5,0,0,1-.71,0l0,0L6.7-21.27a2.56,2.56,0,0,0-3.94,0,3.42,3.42,0,0,0,0,4.43h0l5.33,6a.08.08,0,0,0,.1,0Zm0,2.66,0,0L1.42-15.77v0a5.39,5.39,0,0,1,0-6.91,4,4,0,0,1,6.11,0l.25.28a.51.51,0,0,0,.71.05s0,0,0-.05l.25-.28a4,4,0,0,1,6.11,0,5.38,5.38,0,0,1,0,6.91v0L8.19-8.16Z" style="fill:none"/></clipPath><clipPath id="clip-path-5"><path d="M64.86-20.34a4.22,4.22,0,0,0-4.21,4.21,4.22,4.22,0,0,0,4.21,4.22,4.21,4.21,0,0,0,4.21-4.22A4.21,4.21,0,0,0,64.86-20.34Zm1-3.8a.5.5,0,0,1,.5.47l.09,1.15a1,1,0,0,0,.67.9,1.07,1.07,0,0,0,1.14-.17l.89-.77a.51.51,0,0,1,.69,0l1.39,1.39a.5.5,0,0,1,0,.68l-.77.89a1.09,1.09,0,0,0-.18,1.13,1.09,1.09,0,0,0,.93.69l1.17.08a.5.5,0,0,1,.47.51v2a.5.5,0,0,1-.47.51l-1.17.08a1.07,1.07,0,0,0-.92.67,1.09,1.09,0,0,0,.17,1.15l.77.89a.5.5,0,0,1,0,.68L69.81-9.83a.51.51,0,0,1-.69,0l-.88-.77a1.08,1.08,0,0,0-1.09-.19l-.06,0a1.09,1.09,0,0,0-.67.93l-.09,1.19a.49.49,0,0,1-.5.47h-2a.5.5,0,0,1-.51-.47L63.28-9.8a1.11,1.11,0,0,0-.67-.94,1.09,1.09,0,0,0-1.15.17l-.89.77a.51.51,0,0,1-.69,0L58.5-11.22a.51.51,0,0,1,0-.69l.77-.89a1.07,1.07,0,0,0,.18-1.12,1.09,1.09,0,0,0-.93-.69l-1.17-.08a.5.5,0,0,1-.47-.51v-2a.5.5,0,0,1,.47-.51l1.17-.08a1.07,1.07,0,0,0,.92-.67,1.07,1.07,0,0,0-.17-1.14l-.77-.88a.51.51,0,0,1,0-.69l1.38-1.38a.5.5,0,0,1,.69,0l.89.78a1.31,1.31,0,0,0,1.27.13,1.28,1.28,0,0,0,.55-.82l.08-1.23a.51.51,0,0,1,.51-.47Z" style="fill:none;clip-rule:evenodd"/></clipPath><clipPath id="clip-path-6"><path d="M35.9,15.7l.22-.55-.59-.09a.34.34,0,0,1,0-.67l.59-.09-.22-.56a.34.34,0,0,1,.58-.33l.37.46.38-.46a.33.33,0,0,1,.57.33l-.21.56.59.09a.34.34,0,0,1,0,.67l-.59.09.21.55a.33.33,0,0,1-.57.33l-.38-.45-.37.45A.34.34,0,0,1,35.9,15.7Zm-6.24-3.58L30.09,11,28.9,10.8a.38.38,0,0,1,0-.75l1.19-.19-.43-1.13a.38.38,0,0,1,.65-.38l.76.94.76-.94a.38.38,0,0,1,.65.38l-.43,1.13,1.19.19a.38.38,0,0,1,0,.75L32.05,11l.43,1.13a.38.38,0,0,1-.65.37l-.76-.93-.76.93A.38.38,0,0,1,29.66,12.12Zm4.57-.78.37-3.4L31.47,6.56a.55.55,0,0,1,0-1L34.6,4.17,34.23.77a.55.55,0,0,1,.87-.5l2.76,2,2.76-2a.55.55,0,0,1,.87.5l-.37,3.4,3.13,1.38a.55.55,0,0,1,0,1L41.12,7.94l.37,3.4a.55.55,0,0,1-.87.51l-2.76-2-2.76,2A.55.55,0,0,1,34.23,11.34Z" style="fill:none"/></clipPath></defs><g id="App_Wishlist_active" data-name="App Wishlist active"><g id="App-Icons"><path id="Wishlist-active" d="M8,16l0,0L1.26,8.37v0a5.39,5.39,0,0,1,0-6.91,4,4,0,0,1,6.11,0l.25.28a.5.5,0,0,0,.71,0,.1.1,0,0,0,.05,0l.25-.28a4,4,0,0,1,6.11,0,5.39,5.39,0,0,1,0,6.91v0L8,16Z" style="fill:#ef6942"/></g></g></svg>