<svg width="40" height="40" viewBox="0 0 40 40" fill="none" xmlns="http://www.w3.org/2000/svg">
<g filter="url(#filter0_d_3356_17179)">
<path d="M19.0078 8.57836L19.0008 24.0164C19.0008 24.2816 19.1061 24.5359 19.2937 24.7235C19.4812 24.911 19.7356 25.0164 20.0008 25.0164C20.266 25.0164 20.5204 24.911 20.7079 24.7235C20.8954 24.5359 21.0008 24.2816 21.0008 24.0164L21.0078 8.59536L23.9198 11.5084C24.1073 11.6958 24.3616 11.8011 24.6268 11.8011C24.8919 11.8011 25.1463 11.6958 25.3338 11.5084C25.5213 11.3208 25.6266 11.0665 25.6266 10.8014C25.6266 10.5362 25.5213 10.2819 25.3338 10.0944L22.1228 6.87936C21.8442 6.60058 21.5134 6.37943 21.1493 6.22855C20.7852 6.07766 20.3949 6 20.0008 6C19.6067 6 19.2164 6.07766 18.8523 6.22855C18.4882 6.37943 18.1574 6.60058 17.8788 6.87936L14.6678 10.0914C14.4803 10.2789 14.375 10.5332 14.375 10.7984C14.375 11.0635 14.4803 11.3178 14.6678 11.5054C14.8553 11.6928 15.1096 11.7981 15.3748 11.7981C15.64 11.7981 15.8943 11.6928 16.0818 11.5054L19.0078 8.57836Z" fill="#C53434"/>
<path d="M30 23V27C30 27.2652 29.8946 27.5196 29.7071 27.7071C29.5196 27.8946 29.2652 28 29 28H11C10.7348 28 10.4804 27.8946 10.2929 27.7071C10.1054 27.5196 10 27.2652 10 27V23C10 22.7348 9.89464 22.4804 9.70711 22.2929C9.51957 22.1054 9.26522 22 9 22C8.73478 22 8.48043 22.1054 8.29289 22.2929C8.10536 22.4804 8 22.7348 8 23V27C8 27.7956 8.31607 28.5587 8.87868 29.1213C9.44129 29.6839 10.2044 30 11 30H29C29.7956 30 30.5587 29.6839 31.1213 29.1213C31.6839 28.5587 32 27.7956 32 27V23C32 22.7348 31.8946 22.4804 31.7071 22.2929C31.5196 22.1054 31.2652 22 31 22C30.7348 22 30.4804 22.1054 30.2929 22.2929C30.1054 22.4804 30 22.7348 30 23Z" fill="#272E35"/>
</g>
<defs>
<filter id="filter0_d_3356_17179" x="0" y="0" width="40" height="40" filterUnits="userSpaceOnUse" color-interpolation-filters="sRGB">
<feFlood flood-opacity="0" result="BackgroundImageFix"/>
<feColorMatrix in="SourceAlpha" type="matrix" values="0 0 0 0 0 0 0 0 0 0 0 0 0 0 0 0 0 0 127 0" result="hardAlpha"/>
<feOffset dy="2"/>
<feGaussianBlur stdDeviation="4"/>
<feComposite in2="hardAlpha" operator="out"/>
<feColorMatrix type="matrix" values="0 0 0 0 0 0 0 0 0 0 0 0 0 0 0 0 0 0 0.05 0"/>
<feBlend mode="normal" in2="BackgroundImageFix" result="effect1_dropShadow_3356_17179"/>
<feBlend mode="normal" in="SourceGraphic" in2="effect1_dropShadow_3356_17179" result="shape"/>
</filter>
</defs>
</svg>
