<svg width="40" height="40" viewBox="0 0 40 40" fill="none" xmlns="http://www.w3.org/2000/svg">
<g filter="url(#filter0_d_2161_15496)">
<path d="M15 12L30.2457 12.2891L28.2457 21.2891L16 21L15 12Z" fill="#EDDBFF"/>
<path fill-rule="evenodd" clip-rule="evenodd" d="M8.60955 6.04948C8.38787 6.11335 8.09917 6.42057 8.03417 6.66177C7.92333 7.07295 8.08898 7.51757 8.43184 7.72928C8.55488 7.80524 8.72265 7.84406 9.06888 7.87661C9.97496 7.96181 10.626 8.25736 11.2282 8.85685C11.6063 9.23324 11.8455 9.62824 12.021 10.1656C12.0961 10.3957 12.2511 11.6774 12.6823 15.6337C12.992 18.4759 13.2455 20.8306 13.2455 20.8663C13.2455 20.902 13.1452 20.9837 13.0226 21.0479C12.6517 21.242 12.1116 21.818 11.9123 22.2321C11.3606 23.3781 11.5633 24.6277 12.4435 25.5072C13.001 26.0642 13.6805 26.344 14.4805 26.3461C14.7735 26.3469 14.7981 26.3544 14.7721 26.4361C14.719 26.6032 14.6539 27.0731 14.6544 27.2847C14.6576 28.5121 15.6191 29.6801 16.8355 29.9341C18.7463 30.3332 20.4587 28.7114 20.1453 26.7995C20.1206 26.6488 20.0877 26.4852 20.072 26.4361C20.0445 26.3493 20.0993 26.3469 22.0679 26.3469C24.0365 26.3469 24.0913 26.3493 24.0638 26.4361C24.0482 26.4852 24.0152 26.6488 23.9905 26.7995C23.8452 27.6865 24.1231 28.5393 24.7671 29.1829C25.8576 30.2724 27.5699 30.2724 28.6604 29.1829C30.1341 27.7102 29.5194 25.2481 27.5115 24.5812C27.2679 24.5003 26.8854 24.4942 20.6795 24.4717L14.1056 24.4479L13.9219 24.3197C13.608 24.1006 13.5036 23.8984 13.5036 23.5095C13.5036 23.2198 13.5212 23.1487 13.6319 22.9903C13.7024 22.8893 13.8381 22.7539 13.9335 22.6895L14.1067 22.5722L20.5862 22.5469C26.978 22.5218 27.0702 22.5202 27.3942 22.4238C28.6698 22.0444 29.5029 21.3704 30.166 20.1808C30.3263 19.8933 30.3491 19.8144 30.3498 19.5444C30.3509 19.1373 30.1976 18.8891 29.8432 18.7241C29.5319 18.5794 29.3254 18.5806 29.0276 18.7289C28.7853 18.8495 28.6585 18.9986 28.4497 19.4082C28.3909 19.5237 28.1927 19.7678 28.0092 19.9507C27.648 20.311 27.2604 20.529 26.817 20.6214C26.6434 20.6576 24.8433 20.6732 20.8496 20.6732H15.1309L15.1037 20.4974C15.0888 20.4007 14.9074 18.7495 14.7007 16.8282C14.4941 14.9069 14.3125 13.2558 14.2973 13.159L14.2696 12.9832H22.0872C26.8678 12.9832 29.9048 13.0001 29.9048 13.0268C29.9048 13.0507 29.7982 13.5835 29.6678 14.2107C29.4166 15.4192 29.4107 15.5369 29.5846 15.8475C29.6883 16.0326 29.9789 16.2434 30.1963 16.2911C30.5825 16.3759 31.0384 16.1497 31.2084 15.7891C31.2612 15.6772 31.4687 14.7879 31.6696 13.8131C32.014 12.1413 32.0314 12.0281 31.976 11.8211C31.901 11.5407 31.7408 11.3319 31.5147 11.2197C31.3418 11.1338 31.0626 11.1306 22.714 11.1189L14.0918 11.1068L14.071 11.0017C14.0595 10.9439 14.0265 10.7067 13.9977 10.4746C13.7864 8.7753 12.7259 7.30337 11.1449 6.5151C10.3434 6.11546 9.14458 5.89531 8.60955 6.04948ZM17.7397 26.4195C18.491 26.7331 18.491 27.7425 17.7397 28.0562C17.5192 28.1482 17.3249 28.1482 17.1045 28.0562C16.3679 27.7487 16.3472 26.7689 17.0701 26.4355C17.3007 26.3292 17.5114 26.3242 17.7397 26.4195ZM27.0314 26.4195C27.7827 26.7331 27.7827 27.7425 27.0314 28.0562C26.8109 28.1482 26.6166 28.1482 26.3961 28.0562C25.6596 27.7487 25.6389 26.7689 26.3618 26.4355C26.5923 26.3292 26.8031 26.3242 27.0314 26.4195Z" fill="#272E35"/>
</g>
<defs>
<filter id="filter0_d_2161_15496" x="0" y="0" width="40" height="40" filterUnits="userSpaceOnUse" color-interpolation-filters="sRGB">
<feFlood flood-opacity="0" result="BackgroundImageFix"/>
<feColorMatrix in="SourceAlpha" type="matrix" values="0 0 0 0 0 0 0 0 0 0 0 0 0 0 0 0 0 0 127 0" result="hardAlpha"/>
<feOffset dy="2"/>
<feGaussianBlur stdDeviation="4"/>
<feComposite in2="hardAlpha" operator="out"/>
<feColorMatrix type="matrix" values="0 0 0 0 0 0 0 0 0 0 0 0 0 0 0 0 0 0 0.05 0"/>
<feBlend mode="normal" in2="BackgroundImageFix" result="effect1_dropShadow_2161_15496"/>
<feBlend mode="normal" in="SourceGraphic" in2="effect1_dropShadow_2161_15496" result="shape"/>
</filter>
</defs>
</svg>
