<svg width="24" height="24" viewBox="0 0 24 24" fill="none" xmlns="http://www.w3.org/2000/svg">
<path fill-rule="evenodd" clip-rule="evenodd" d="M12.2169 0.0572978C11.9944 0.158282 11.7639 0.439 11.7233 0.658688C11.7053 0.756204 11.6981 1.50904 11.7073 2.33166C11.7233 3.7423 11.7306 3.83602 11.8377 3.97921C12.0535 4.26796 12.2294 4.358 12.5774 4.358C12.9256 4.358 13.1015 4.26785 13.3172 3.9791C13.4259 3.83354 13.4307 3.75771 13.4307 2.18423C13.4307 0.610755 13.4259 0.534921 13.3172 0.389361C13.2548 0.305767 13.1389 0.189044 13.0598 0.129995C12.8776 -0.00598902 12.4397 -0.043741 12.2169 0.0572978ZM20.1439 0.93781C20.0515 0.97969 19.9101 1.09229 19.8295 1.18799C19.6892 1.35473 19.6682 1.4238 19.5984 1.94979C19.5502 2.31367 19.3657 2.74952 19.1568 2.99353C18.8611 3.33897 18.5604 3.45156 17.7835 3.50803C16.6054 3.59366 16.0637 3.81577 15.3792 4.4937C14.7337 5.13312 14.382 5.97253 14.3716 6.89877C14.3674 7.27194 14.3858 7.37425 14.48 7.50076C14.6589 7.74098 14.8573 7.86244 15.1188 7.89188C15.6561 7.95241 16.0237 7.61303 16.1027 6.98335C16.1659 6.48091 16.3467 6.01396 16.5767 5.75944C16.8767 5.42754 17.176 5.31858 17.9407 5.263C19.1259 5.17687 19.6778 4.95135 20.3421 4.28172C20.9926 3.6259 21.3422 2.79244 21.3526 1.87225C21.3581 1.38709 21.2962 1.24148 20.9868 1.01051C20.8046 0.874523 20.3667 0.836771 20.1439 0.93781ZM7.17999 4.29207C6.67349 4.43526 6.28314 4.77492 6.06064 5.26602C5.94823 5.51405 3.7627 11.4849 1.98155 16.41C1.76262 17.0154 1.22694 18.4888 0.791179 19.6844C0.00216892 21.8492 -0.0011339 21.8601 7.71707e-05 22.326C0.00106804 22.7071 0.0250691 22.8396 0.129771 23.0414C0.304495 23.3781 0.604234 23.6819 0.93469 23.8573C1.17608 23.9854 1.27082 24.0029 1.70537 23.9996L2.2008 23.9958L4.26512 23.238C5.4005 22.8212 6.86203 22.2878 7.51298 22.0526C14.0044 19.7073 18.8016 17.9485 18.944 17.8617C19.4484 17.5543 19.7522 17.0018 19.7577 16.3825C19.7647 15.5724 20.1854 16.0504 14.1259 9.98309C9.70474 5.55632 8.64291 4.52045 8.4078 4.40483C8.06363 4.23555 7.5475 4.18817 7.17999 4.29207ZM17.8469 16.4209C17.7493 16.4589 16.852 16.7871 15.8528 17.1503L14.0362 17.8106L10.1156 13.8909L6.19496 9.97126L6.92165 7.97536L7.6484 5.9794L12.8363 11.1656L18.0243 16.3518L17.8469 16.4209ZM21.4715 6.65668C20.0826 7.13255 19.9788 7.1774 19.8275 7.36687C19.3882 7.9173 19.7374 8.71879 20.4379 8.76777C20.6496 8.78257 20.9688 8.69276 22.1797 8.27793C23.5901 7.79469 23.6704 7.75969 23.8311 7.55849C23.9761 7.37689 24 7.30166 24 7.026C24 6.68172 23.9093 6.50276 23.6291 6.29358C23.3231 6.06514 23.0774 6.10647 21.4715 6.65668ZM20.1439 10.6265C19.776 10.7867 19.5706 11.2054 19.6489 11.636C19.6808 11.8114 19.8491 12.0049 20.7698 12.9254C21.9368 14.0921 21.9995 14.1334 22.4697 14.0452C22.7407 13.9944 23.07 13.6652 23.1208 13.3943C23.2079 12.9299 23.1608 12.8566 22.0551 11.7399C21.4898 11.1691 20.9477 10.6676 20.8502 10.6255C20.6301 10.5306 20.3634 10.5309 20.1439 10.6265ZM12.1495 18.4788C12.1275 18.4984 11.2334 18.8303 10.1625 19.2165L8.21551 19.9187L6.15015 17.8541L4.08478 15.7893L4.76149 13.9259C5.13362 12.901 5.46034 12.0019 5.48747 11.9278C5.53377 11.8013 5.73783 11.9941 8.86316 15.1182C10.6926 16.947 12.1715 18.4592 12.1495 18.4788ZM4.92361 19.1045C5.72435 19.9054 6.36825 20.5711 6.35449 20.5838C6.3181 20.6172 1.76625 22.2676 1.75139 22.2528C1.7292 22.2305 3.40796 17.6482 3.43835 17.6482C3.45448 17.6482 4.12288 18.3036 4.92361 19.1045Z" fill="#0D4A43"/>
</svg>
